<?xml version="1.0" standalone="no"?>
<!DOCTYPE svg PUBLIC "-//W3C//DTD SVG 20010904//EN"
 "http://www.w3.org/TR/2001/REC-SVG-20010904/DTD/svg10.dtd">
<svg version="1.0" xmlns="http://www.w3.org/2000/svg"
 width="700.000000pt" height="700.000000pt" viewBox="0 0 700.000000 700.000000"
 preserveAspectRatio="xMidYMid meet">
<metadata>
Created by potrace 1.11, written by Peter Selinger 2001-2013
</metadata>
<g transform="translate(0.000000,700.000000) scale(0.100000,-0.100000)"
fill="#000000" stroke="none">
<path d="M3608 6996 c-1 -2 -67 -6 -146 -9 -78 -4 -146 -8 -150 -11 -5 -3 -30
-7 -58 -10 -84 -9 -147 -24 -254 -58 -397 -128 -638 -417 -744 -893 -47 -211
-61 -366 -60 -680 0 -238 5 -297 35 -450 76 -372 230 -668 479 -915 254 -254
547 -382 875 -383 175 -1 341 32 475 94 24 12 54 25 66 29 30 12 151 87 199
124 201 153 355 345 475 589 58 119 129 317 146 407 4 25 8 47 9 50 9 40 25
144 32 215 13 127 6 544 -12 660 -2 17 -7 48 -9 70 -95 747 -489 1121 -1226
1161 -58 3 -110 7 -117 9 -6 2 -13 2 -15 1z"/>
<path d="M2735 3434 c-33 -7 -76 -16 -95 -19 -19 -4 -43 -8 -52 -11 -10 -3
-30 -7 -45 -10 -139 -24 -469 -121 -627 -184 -512 -205 -773 -520 -882 -1063
-2 -10 -5 -26 -8 -35 -3 -9 -8 -42 -11 -72 -3 -30 -8 -62 -10 -70 -26 -99 -51
-484 -59 -929 l-5 -234 29 -42 c102 -148 371 -329 660 -445 165 -67 525 -170
640 -185 14 -2 64 -10 110 -19 47 -8 103 -18 125 -21 22 -3 54 -7 70 -10 17
-3 55 -7 85 -10 30 -3 64 -7 75 -9 11 -2 58 -7 105 -11 47 -4 103 -8 125 -10
280 -26 1004 -26 1265 0 25 2 77 7 115 10 80 6 382 44 405 50 8 2 31 6 50 9
19 3 46 8 60 11 14 3 41 8 60 11 249 43 618 163 830 269 195 98 436 289 482
381 16 31 17 110 3 504 -7 208 -8 243 -20 385 -11 146 -15 190 -20 210 -2 11
-7 43 -10 70 -19 150 -53 301 -98 436 -153 456 -447 711 -1032 895 -93 30
-346 97 -410 110 -11 2 -31 6 -45 9 -14 2 -36 6 -50 9 -20 3 -51 9 -110 21 -3
1 -19 5 -37 9 -29 7 -38 2 -103 -53 -103 -86 -252 -160 -405 -200 -153 -40
-404 -44 -555 -10 -25 6 -54 12 -64 15 -125 25 -300 115 -402 208 -57 51 -54
50 -139 30z"/>
</g>
</svg>
